<?xml version="1.0" encoding="UTF-8"?>
<svg width="412px" height="369px" viewBox="0 0 412 369" version="1.1" xmlns="http://www.w3.org/2000/svg" xmlns:xlink="http://www.w3.org/1999/xlink">
    <!-- Generator: Sketch 63.1 (92452) - https://sketch.com -->
    <title>Combined Shape</title>
    <desc>Created with Sketch.</desc>
    <g id="Page-1" stroke="none" stroke-width="1" fill="none" fill-rule="evenodd">
        <path d="M73.4493883,11.0001433 C91.6458683,-2.50983007 116.032428,-3.67377674 135.575468,8.05272993 L135.575468,8.05272993 L143.738455,12.9491566 C149.602562,16.4665966 153.362348,22.6464366 153.799255,29.4765166 C154.236162,36.3492633 151.269975,43.0001433 145.859842,47.2633966 C125.632428,63.2104899 107.265282,58.7697433 98.759255,55.1703833 C86.6487483,67.1170499 46.7315217,112.442703 62.4652817,177.39673 C63.9261883,183.426383 67.133015,189.046437 71.735895,193.649317 C83.0630417,204.96793 99.7457083,209.594703 115.269548,205.70521 L115.269548,205.70521 L142.673495,198.85465 C169.538135,192.13721 196.733868,193.101477 221.350828,201.627983 C257.114028,214.018383 285.243308,238.297423 304.963842,273.787557 C349.303042,353.608357 400.223148,338.43097 402.373548,337.751717 C405.894402,336.632143 409.707095,338.50777 410.923948,342.011557 C412.137388,345.51193 410.360748,349.33145 406.891095,350.63705 C405.273175,351.24121 385.484375,358.41433 356.380588,358.41433 C328.179628,358.41433 291.235415,351.657637 253.594882,325.69241 L253.594882,325.69241 L248.206935,362.762917 C247.717122,366.116517 244.839682,368.606543 241.450242,368.606543 L241.450242,368.606543 L212.677548,368.606543 C209.431468,368.606543 206.634242,366.31961 205.987415,363.14009 L205.987415,363.14009 L200.138668,334.398117 C191.489282,335.746383 182.821122,336.53657 174.176855,336.53657 C165.025708,336.53657 155.906988,335.751503 146.853122,334.244517 L146.853122,334.244517 L142.707628,362.762917 C142.217815,366.116517 139.340375,368.606543 135.950935,368.606543 C128.496356,368.539974 123.012711,368.50446 119.5,368.5 C114.230934,368.49331 113,365 112.5,362.5 C112,360 109.5,321.5 108,319 C106.5,316.5 103.5,316 102.5,318 C101.5,320 103.5,357.5 102,363 C100.5,368.5 96.9388511,368.606543 94.7458462,368.606543 L78.407255,368.606543 C74.9324817,368.606543 72.0140817,365.998757 71.623255,362.54617 L71.623255,362.54617 L64.5235217,299.745957 C64.5081617,299.60601 64.5661883,299.481423 64.5593617,299.341477 C31.502935,276.199077 10.9188283,246.202703 4.55466833,211.192143 C-16.2120517,96.9615299 38.804055,36.7315566 73.4493883,11.0001433 Z M112.624215,18.9856366 C109.933189,18.9856366 107.751682,21.1671441 107.751682,23.8581699 C107.751682,26.5491958 109.933189,28.7307033 112.624215,28.7307033 C115.315241,28.7307033 117.496748,26.5491958 117.496748,23.8581699 C117.496748,21.1671441 115.315241,18.9856366 112.624215,18.9856366 Z" id="Combined-Shape" fill="#000000" fill-rule="nonzero"></path>
    </g>
</svg>